<svg width="18" height="18" viewBox="0 0 18 18" fill="none" xmlns="http://www.w3.org/2000/svg">
<path d="M11.6243 5.25H6.37427M9.37352 8.25H6.37354" stroke="white" stroke-width="1.5" stroke-linecap="round" stroke-linejoin="round"/>
<path d="M15 16.5H4.5C3.67157 16.5 3 15.8284 3 15M3 15C3 14.1715 3.67157 13.5 4.5 13.5H15V4.5C15 3.08578 15 2.37868 14.5606 1.93934C14.1213 1.5 13.4142 1.5 12 1.5H7.5C5.37868 1.5 4.31802 1.5 3.65901 2.15901C3 2.81802 3 3.87868 3 6V15Z" stroke="white" stroke-width="1.5" stroke-linecap="round" stroke-linejoin="round"/>
<path d="M14.625 13.5C14.625 13.5 13.875 14.0721 13.875 15C13.875 15.9279 14.625 16.5 14.625 16.5" stroke="white" stroke-width="1.5" stroke-linecap="round" stroke-linejoin="round"/>
</svg>
