<svg width="72" height="72" viewBox="0 0 72 72" fill="none" xmlns="http://www.w3.org/2000/svg">
<path d="M47.9999 36C47.9999 36 39.1622 48 35.9999 48C32.8376 48 24 36 24 36M35.9999 46.5V9" stroke="#E33D3D" stroke-width="4.5" stroke-linecap="round" stroke-linejoin="round"/>
<path d="M50.9999 24C57.6275 24 62.9999 29.3726 62.9999 36V43.5C62.9999 50.5038 62.9999 54.0057 61.583 56.6568C60.4643 58.7499 58.7498 60.4641 56.6567 61.5831C54.0059 63 50.504 63 43.4999 63H28.5012C21.4962 63 17.9937 63 15.3424 61.5825C13.25 60.4638 11.5361 58.7502 10.4174 56.6577C9 54.0063 9 50.5038 9 43.4988V35.997C9.00165 29.3734 14.3696 24.0037 20.9932 24H21" stroke="#E33D3D" stroke-width="4.5" stroke-linecap="round" stroke-linejoin="round"/>
</svg>
