<svg width="22" height="22" viewBox="0 0 22 22" fill="none" xmlns="http://www.w3.org/2000/svg">
<path d="M13.75 15.75C12.9505 16.3724 11.9002 16.75 10.75 16.75C9.59976 16.75 8.54952 16.3724 7.75 15.75" stroke="#686868" stroke-width="1.5" stroke-linecap="round"/>
<path d="M5.77099 3.35L6.21043 3.95777L5.77099 3.35ZM1.40243 13.9224L0.661129 14.0363H0.661129L1.40243 13.9224ZM20.0976 13.9224L20.8389 14.0363L20.0976 13.9224ZM20.3986 11.9635L19.6573 11.8495L20.3986 11.9635ZM17.1689 4.39106L17.6083 3.78329L17.1689 4.39106ZM1.10139 11.9635L1.84269 11.8495L1.10139 11.9635ZM4.33114 4.39106L3.8917 3.78329L4.33114 4.39106ZM20.3986 11.9635L19.6573 11.8495L19.3563 13.8085L20.0976 13.9224L20.8389 14.0363L21.1399 12.0774L20.3986 11.9635ZM11.8888 20.75V20H9.61119V20.75V21.5H11.8888V20.75ZM1.40243 13.9224L2.14373 13.8085L1.84269 11.8495L1.10139 11.9635L0.360093 12.0774L0.661129 14.0363L1.40243 13.9224ZM4.33114 4.39106L4.77058 4.99884L6.21043 3.95777L5.77099 3.35L5.33155 2.74223L3.8917 3.78329L4.33114 4.39106ZM15.729 3.35L15.2896 3.95777L16.7294 4.99884L17.1689 4.39106L17.6083 3.78329L16.1685 2.74223L15.729 3.35ZM5.77099 3.35L6.21043 3.95777C7.42317 3.08092 8.28197 2.4614 9.00787 2.05406C9.71641 1.65645 10.233 1.5 10.75 1.5V0.75V0C9.88393 0 9.10968 0.276884 8.2738 0.745945C7.45528 1.20527 6.5161 1.88575 5.33155 2.74223L5.77099 3.35ZM15.729 3.35L16.1685 2.74223C14.9839 1.88575 14.0447 1.20527 13.2262 0.745945C12.3903 0.276884 11.6161 0 10.75 0V0.75V1.5C11.267 1.5 11.7836 1.65645 12.4921 2.05406C13.218 2.4614 14.0768 3.08092 15.2896 3.95777L15.729 3.35ZM9.61119 20.75V20C7.88496 20 6.65793 19.9987 5.71392 19.884C4.78867 19.7717 4.23034 19.5594 3.8006 19.202L3.321 19.7786L2.8414 20.3552C3.57957 20.9692 4.4589 21.2426 5.53306 21.3731C6.58845 21.5013 7.92256 21.5 9.61119 21.5V20.75ZM1.40243 13.9224L0.661129 14.0363C0.908299 15.6447 1.10321 16.9228 1.39105 17.9162C1.68544 18.9321 2.10015 19.7387 2.8414 20.3552L3.321 19.7786L3.8006 19.202C3.37394 18.8471 3.07959 18.3538 2.83178 17.4987C2.57742 16.6209 2.397 15.4566 2.14373 13.8085L1.40243 13.9224ZM20.0976 13.9224L19.3563 13.8085C19.103 15.4566 18.9226 16.6209 18.6682 17.4987C18.4204 18.3538 18.1261 18.8471 17.6994 19.202L18.179 19.7786L18.6586 20.3552C19.3998 19.7387 19.8146 18.9321 20.109 17.9162C20.3968 16.9228 20.5917 15.6447 20.8389 14.0363L20.0976 13.9224ZM11.8888 20.75V21.5C13.5774 21.5 14.9115 21.5013 15.9669 21.3731C17.0411 21.2426 17.9204 20.9692 18.6586 20.3552L18.179 19.7786L17.6994 19.202C17.2697 19.5594 16.7113 19.7717 15.7861 19.884C14.8421 19.9987 13.615 20 11.8888 20V20.75ZM20.3986 11.9635L21.1399 12.0774C21.3141 10.9441 21.4543 10.0378 21.4906 9.28808C21.5278 8.52045 21.4608 7.85469 21.1837 7.20513L20.4938 7.49938L19.804 7.79362C19.9612 8.16233 20.0231 8.58 19.9923 9.21554C19.9607 9.86903 19.8362 10.6856 19.6573 11.8495L20.3986 11.9635ZM17.1689 4.39106L16.7294 4.99884C17.7051 5.70427 18.3918 6.20189 18.8934 6.6469C19.383 7.08129 19.6461 7.4235 19.804 7.79362L20.4938 7.49938L21.1837 7.20513C20.9073 6.557 20.4715 6.04173 19.8889 5.52487C19.3183 5.01863 18.5598 4.47122 17.6083 3.78329L17.1689 4.39106ZM1.10139 11.9635L1.84269 11.8495C1.66382 10.6856 1.53929 9.86903 1.50765 9.21554C1.47688 8.58 1.53878 8.16233 1.69604 7.79362L1.00617 7.49938L0.316294 7.20513C0.0392501 7.85469 -0.0277553 8.52045 0.00940919 9.28808C0.0457047 10.0378 0.185941 10.9441 0.360093 12.0774L1.10139 11.9635ZM4.33114 4.39106L3.8917 3.78329C2.94024 4.47122 2.18166 5.01863 1.61109 5.52487C1.02855 6.04173 0.592735 6.557 0.316294 7.20513L1.00617 7.49938L1.69604 7.79362C1.8539 7.4235 2.11702 7.08129 2.60661 6.6469C3.10817 6.20189 3.79492 5.70427 4.77058 4.99884L4.33114 4.39106Z" fill="#686868"/>
</svg>
