<svg width="18" height="18" viewBox="0 0 18 18" fill="none" xmlns="http://www.w3.org/2000/svg">
<path d="M0.775701 11.2233C0.601288 12.3667 1.38105 13.1603 2.33578 13.5558C5.99602 15.0721 11.0896 15.0721 14.7499 13.5558C15.7046 13.1603 16.4844 12.3667 16.31 11.2233C16.2028 10.5207 15.6727 9.93558 15.2801 9.36423C14.7657 8.60668 14.7146 7.7804 14.7145 6.90132C14.7145 3.50404 11.9514 0.75 8.54283 0.75C5.13428 0.75 2.37111 3.50404 2.37111 6.90132C2.37103 7.7804 2.31993 8.60668 1.80558 9.36423C1.41291 9.93557 0.88289 10.5207 0.775701 11.2233Z" stroke="#5B5F5F" stroke-width="1.5" stroke-linecap="round" stroke-linejoin="round"/>
<path d="M5.26141 14.693C5.63745 16.108 6.96371 17.1535 8.54212 17.1535C10.1205 17.1535 11.4468 16.108 11.8228 14.693" stroke="#5B5F5F" stroke-width="1.5" stroke-linecap="round" stroke-linejoin="round"/>
</svg>
